<svg width="88" height="17" viewBox="0 0 88 17" fill="none" xmlns="http://www.w3.org/2000/svg">
<path d="M37.0039 10.4714C36.7603 10.2182 36.6389 9.86926 36.6389 9.42369V4.2693C36.6389 4.22646 36.6727 4.19141 36.7139 4.19141H39.1693C39.2105 4.19141 39.2443 4.15635 39.2443 4.11351V3.57525C39.2443 3.53241 39.2105 3.49735 39.1693 3.49735H36.7139C36.6727 3.49735 36.6389 3.4623 36.6389 3.41946V0.922886C36.6389 0.880044 36.6052 0.84499 36.564 0.84499H36.4898C36.474 0.84499 36.4583 0.850443 36.4455 0.859791L32.3839 3.95538C32.3644 3.97018 32.3531 3.99355 32.3531 4.01848V4.12364C32.3531 4.16648 32.3869 4.20153 32.4281 4.20153H34.2517C34.2929 4.20153 34.3266 4.23659 34.3266 4.27943V9.83888C34.3266 10.8266 34.5987 11.6095 35.1436 12.1882C35.6885 12.7545 36.4418 13.0373 37.4042 13.0373H38.6679C38.7091 13.0373 38.7428 13.0022 38.7428 12.9594V10.9286C38.7428 10.8858 38.7091 10.8507 38.6679 10.8507H38.0121C37.5833 10.8507 37.2475 10.7238 37.0039 10.4714Z" fill="#F2ECE3"/>
<path d="M77.5664 3.84642H75.404C75.3626 3.84642 75.329 3.8813 75.329 3.92432V12.9657C75.329 13.0087 75.3626 13.0436 75.404 13.0436H77.5664C77.6078 13.0436 77.6413 13.0087 77.6413 12.9657V3.92432C77.6413 3.8813 77.6078 3.84642 77.5664 3.84642Z" fill="#F2ECE3"/>
<path d="M19.9936 9.05372C19.9936 9.66832 19.8287 10.1645 19.4989 10.5431C19.1691 10.9224 18.7366 11.1117 18.2022 11.1117C17.8387 11.1117 17.5224 11.0284 17.2555 10.8632C16.988 10.6973 16.7803 10.4574 16.6327 10.1443C16.485 9.83112 16.4116 9.46735 16.4116 9.05372V4.09563C16.4116 4.05279 16.3779 4.01774 16.3366 4.01774H14.217C14.1757 4.01774 14.142 4.05279 14.142 4.09563V9.00075C14.142 9.84047 14.3047 10.582 14.6285 11.2262C14.953 11.8712 15.4215 12.3705 16.0361 12.7257C16.6507 13.0809 17.3725 13.257 18.2029 13.257C19.0334 13.257 19.7417 13.0809 20.3616 12.7257C20.9814 12.3705 21.4536 11.8712 21.7782 11.2262C22.1027 10.5828 22.2639 9.84125 22.2639 9.00075V4.09563C22.2639 4.05279 22.2301 4.01774 22.1889 4.01774H20.07C20.0288 4.01774 19.9951 4.05279 19.9951 4.09563V9.05372H19.9936Z" fill="#F2ECE3"/>
<path d="M30.4774 4.4003C29.7549 4.00381 28.9851 3.80596 28.1659 3.80596C27.3467 3.80596 26.5597 4.00381 25.8364 4.4003C25.1146 4.79602 24.5367 5.35453 24.105 6.07585C23.6725 6.79717 23.4566 7.61819 23.4566 8.54048C23.4566 9.46277 23.6725 10.2667 24.105 10.988C24.5367 11.7077 25.1146 12.2663 25.8364 12.6635C26.5589 13.0592 27.3354 13.2563 28.1659 13.2563C28.9964 13.2563 29.7549 13.0585 30.4774 12.6635C31.1992 12.267 31.7801 11.7085 32.2178 10.988C32.6555 10.2667 32.8744 9.45109 32.8744 8.54048C32.8744 7.62988 32.6548 6.79717 32.2178 6.07585C31.7801 5.35453 31.1992 4.79602 30.4774 4.4003ZM30.2728 9.85225C30.0622 10.2417 29.7721 10.551 29.4026 10.7745C29.0323 10.9997 28.6201 11.1118 28.1651 11.1118C27.7102 11.1118 27.2979 10.9997 26.9277 10.7745C26.5582 10.551 26.2681 10.2417 26.0575 9.85225C25.8469 9.46277 25.7419 9.02578 25.7419 8.54048C25.7419 8.05519 25.8476 7.60105 26.0575 7.21002C26.2681 6.82054 26.5582 6.51285 26.9277 6.28773C27.2979 6.06416 27.7102 5.95121 28.1651 5.95121C28.6201 5.95121 29.0323 6.06339 29.4026 6.28773C29.7721 6.51285 30.0622 6.82054 30.2728 7.21002C30.4834 7.60105 30.5884 8.04428 30.5884 8.54048C30.5884 9.03668 30.4827 9.46277 30.2728 9.85225Z" fill="#F2ECE3"/>
<path d="M46.4553 4.87625C46.4553 4.94636 46.3744 4.97985 46.3272 4.93C46.2035 4.79913 46.0701 4.67761 45.9269 4.56778C45.6196 4.33253 45.2696 4.14636 44.8768 4.00926C44.4848 3.87373 44.0546 3.80596 43.5891 3.80596C42.8381 3.80596 42.1246 4.00381 41.447 4.4003C40.7702 4.79602 40.2275 5.35453 39.8175 6.07585C39.4083 6.79717 39.2037 7.61819 39.2037 8.54048C39.2037 9.46277 39.4083 10.2667 39.8175 10.988C40.2268 11.7077 40.7702 12.2663 41.447 12.6635C42.1238 13.0592 42.8374 13.2563 43.5891 13.2563C44.2825 13.2563 44.8918 13.1122 45.4142 12.8217C45.7583 12.6324 46.0626 12.3963 46.3272 12.1167C46.3736 12.0676 46.4546 12.1019 46.4546 12.1712V12.9658C46.4546 13.0086 46.4883 13.0437 46.5295 13.0437H48.512C48.5533 13.0437 48.587 13.0086 48.587 12.9658V4.09573C48.587 4.05289 48.5533 4.01783 48.512 4.01783H46.5295C46.4883 4.01783 46.4546 4.05289 46.4546 4.09573L46.4553 4.87625ZM46.0971 9.85225C45.8812 10.2417 45.5851 10.551 45.2096 10.7745C44.8349 10.9997 44.4189 11.1118 43.9639 11.1118C43.5089 11.1118 43.0937 10.9997 42.7182 10.7745C42.3434 10.551 42.0466 10.2417 41.8308 9.85225C41.6149 9.46277 41.5062 9.02578 41.5062 8.54048C41.5062 8.05519 41.6141 7.60105 41.8308 7.21002C42.0466 6.82054 42.3434 6.51285 42.7182 6.28773C43.0937 6.06416 43.5089 5.95121 43.9639 5.95121C44.4189 5.95121 44.8349 6.06339 45.2096 6.28773C45.5851 6.51285 45.8812 6.82054 46.0971 7.21002C46.3129 7.60105 46.4216 8.04428 46.4216 8.54048C46.4216 9.03668 46.3137 9.46277 46.0971 9.85225Z" fill="#F2ECE3"/>
<path d="M52.7109 0.277201H50.5912C50.5498 0.277201 50.5162 0.312076 50.5162 0.355097V12.9657C50.5162 13.0087 50.5498 13.0436 50.5912 13.0436H52.7109C52.7522 13.0436 52.7858 13.0087 52.7858 12.9657V0.355097C52.7858 0.312076 52.7522 0.277201 52.7109 0.277201Z" fill="#F2ECE3"/>
<path d="M61.1547 4.4003C60.4321 4.00381 59.6624 3.80596 58.8431 3.80596C58.0239 3.80596 57.2369 4.00381 56.5136 4.4003C55.7918 4.79602 55.2139 5.35453 54.7822 6.07585C54.3497 6.79717 54.1339 7.61819 54.1339 8.54048C54.1339 9.46277 54.3497 10.2667 54.7822 10.988C55.2139 11.7077 55.7918 12.2663 56.5136 12.6635C57.2362 13.0592 58.0127 13.2563 58.8431 13.2563C59.6736 13.2563 60.4321 13.0585 61.1547 12.6635C61.8765 12.267 62.4573 11.7085 62.8951 10.988C63.3328 10.2667 63.5517 9.45109 63.5517 8.54048C63.5517 7.62988 63.332 6.79717 62.8951 6.07585C62.4573 5.35453 61.8765 4.79602 61.1547 4.4003ZM60.9501 9.85225C60.7394 10.2417 60.4494 10.551 60.0799 10.7745C59.7096 10.9997 59.2973 11.1118 58.8424 11.1118C58.3874 11.1118 57.9752 10.9997 57.6049 10.7745C57.2354 10.551 56.9453 10.2417 56.7347 9.85225C56.5241 9.46277 56.4192 9.02578 56.4192 8.54048C56.4192 8.05519 56.5249 7.60105 56.7347 7.21002C56.9453 6.82054 57.2354 6.51285 57.6049 6.28773C57.9752 6.06416 58.3874 5.95121 58.8424 5.95121C59.2973 5.95121 59.7096 6.06339 60.0799 6.28773C60.4494 6.51285 60.7394 6.82054 60.9501 7.21002C61.1607 7.60105 61.2656 8.04428 61.2656 8.54048C61.2656 9.03668 61.1599 9.46277 60.9501 9.85225Z" fill="#F2ECE3"/>
<path d="M71.3324 4.87235C71.3324 4.94246 71.2507 4.97673 71.2042 4.9261C70.9449 4.64723 70.6436 4.4151 70.3003 4.23127C69.7711 3.94695 69.1595 3.80596 68.4662 3.80596C67.7729 3.80596 67.0676 3.99213 66.4185 4.36447C65.7702 4.73681 65.2492 5.26651 64.8572 5.95199C64.4652 6.63748 64.2689 7.42968 64.2689 8.32705C64.2689 9.22441 64.4652 10.001 64.8572 10.6865C65.2492 11.372 65.7702 11.9001 66.4185 12.2725C67.0668 12.6464 67.7497 12.8326 68.4662 12.8326C69.1827 12.8326 69.7486 12.6923 70.2666 12.4158C70.5746 12.2499 70.8422 12.0583 71.0715 11.8409C71.1195 11.795 71.1967 11.8308 71.1967 11.8986V12.5132C71.1967 12.9868 71.1083 13.4035 70.9321 13.7642C70.756 14.1233 70.4944 14.4053 70.1474 14.6055C69.8004 14.8072 69.3814 14.9069 68.8927 14.9069C68.5397 14.9069 68.2189 14.8508 67.9288 14.7395C67.6387 14.6273 67.3966 14.4606 67.2032 14.2417C67.0196 14.0353 66.8727 13.7837 66.761 13.4853C66.7498 13.4557 66.7228 13.4355 66.6913 13.4355H64.5672C64.5192 13.4355 64.4825 13.4822 64.4937 13.5313C64.6451 14.2012 64.9022 14.7901 65.2665 15.2987C65.648 15.83 66.1472 16.2467 66.7678 16.5482C67.3876 16.8497 68.1079 17 68.9264 17C69.9165 17 70.7522 16.7905 71.4351 16.3706C72.1179 15.9507 72.6261 15.3805 72.9626 14.6592C73.2976 13.9379 73.4663 13.134 73.4663 12.2476V4.09573C73.4663 4.05289 73.4326 4.01783 73.3913 4.01783H71.4088C71.3676 4.01783 71.3339 4.05289 71.3339 4.09573V4.87235H71.3324ZM70.9988 9.55936C70.7995 9.93171 70.5184 10.2246 70.1549 10.438C69.7906 10.6499 69.3806 10.7566 68.9264 10.7566C68.4722 10.7566 68.0757 10.6499 67.7069 10.438C67.3374 10.2246 67.0526 9.93171 66.854 9.55936C66.6553 9.18702 66.5557 8.77729 66.5557 8.32705C66.5557 7.87681 66.6553 7.44994 66.854 7.07759C67.0533 6.70525 67.3382 6.41548 67.7069 6.20905C68.0757 6.00263 68.4834 5.89902 68.9264 5.89902C69.3694 5.89902 69.7906 6.00263 70.1549 6.20905C70.5184 6.41548 70.7995 6.70525 70.9988 7.07759C71.1982 7.44994 71.2971 7.86668 71.2971 8.32705C71.2971 8.78741 71.1982 9.18702 70.9988 9.55936Z" fill="#F2ECE3"/>
<path d="M84.8529 10.6943C84.4609 10.9717 84.0142 11.1111 83.5135 11.1111C83.0698 11.1111 82.6628 10.9989 82.2941 10.7738C81.9238 10.5502 81.6375 10.241 81.4329 9.85151C81.2282 9.46203 81.1256 9.02503 81.1256 8.53974C81.1256 8.05445 81.2282 7.60031 81.4329 7.20927C81.6375 6.81979 81.9246 6.5121 82.2941 6.28698C82.6636 6.06342 83.0706 5.95047 83.5135 5.95047C84.0142 5.95047 84.4602 6.08913 84.8529 6.36722C85.2322 6.63518 85.5133 6.99973 85.6962 7.46166C85.7074 7.49048 85.7344 7.50995 85.7651 7.50995H87.9245C87.9725 7.50995 88.0092 7.46322 87.998 7.41414C87.8338 6.68659 87.5392 6.0533 87.1143 5.51581C86.6893 4.97833 86.1331 4.52887 85.502 4.23909C84.8709 3.94932 84.2076 3.80443 83.5143 3.80443C82.6951 3.80443 81.9276 4.00229 81.211 4.39878C80.4945 4.79449 79.9196 5.35301 79.4879 6.07433C79.0554 6.79565 78.8395 7.61667 78.8395 8.53896C78.8395 9.46125 79.0554 10.2651 79.4879 10.9865C79.9196 11.7062 80.4945 12.2647 81.211 12.662C81.9276 13.0577 82.6951 13.2548 83.5143 13.2548C84.2076 13.2548 84.8709 13.1107 85.502 12.8201C86.1331 12.5311 86.6705 12.1058 87.1143 11.5442C87.5392 11.0067 87.8338 10.3734 87.998 9.64431C88.0092 9.59523 87.9725 9.54849 87.9245 9.54849H85.7651C85.7344 9.54849 85.7074 9.56797 85.6962 9.59679C85.5133 10.0587 85.2322 10.4233 84.8529 10.6928V10.6943Z" fill="#F2ECE3"/>
<path d="M12.643 6.83686C12.643 5.62012 12.3582 4.52101 11.79 3.53951C11.2204 2.55802 10.4506 1.7923 9.4785 1.24236C8.50561 0.692411 7.45028 0.418996 6.3125 0.418996C5.17472 0.418996 4.12014 0.69319 3.14726 1.24314C2.17437 1.79308 1.40686 2.55958 0.843965 3.54029C0.281072 4.52101 0 5.6209 0 6.83686C0 8.05282 0.281072 9.15427 0.843965 10.1358C1.40686 11.1172 2.17512 11.8822 3.14726 12.4314C4.12014 12.9813 5.17472 13.2555 6.3125 13.2555C7.45028 13.2555 8.50486 12.9813 9.47775 12.4314C9.83527 12.2288 10.1658 11.9975 10.4686 11.7365C10.4986 11.7108 10.5413 11.7132 10.5691 11.7412L12.4339 13.6793C12.4631 13.7096 12.5103 13.7096 12.5396 13.6793L13.9209 12.2436C13.9502 12.2132 13.9502 12.1642 13.9209 12.1338L11.9055 10.0392C11.8822 10.015 11.877 9.97685 11.8935 9.94647C12.3919 9.01327 12.6422 7.97726 12.6422 6.83608L12.643 6.83686ZM9.69136 8.94628C9.60142 9.1122 9.50098 9.26722 9.3938 9.41366C9.36607 9.45105 9.31285 9.45417 9.28137 9.42067L6.61081 6.64523C6.58158 6.61485 6.53436 6.61485 6.50513 6.64523L6.13861 7.02614C6.10938 7.05652 6.10938 7.1056 6.13861 7.13598L8.82341 9.92622C8.85414 9.95815 8.85264 10.0119 8.81891 10.0415C8.65627 10.1841 8.48088 10.3126 8.292 10.4279C7.70062 10.7885 7.04029 10.9677 6.3125 10.9677C5.58471 10.9677 4.94162 10.7885 4.35024 10.4279C3.75812 10.0672 3.29191 9.57335 2.95088 8.94551C2.60985 8.31922 2.43896 7.6166 2.43896 6.83608C2.43896 6.05556 2.60985 5.35294 2.95088 4.72665C3.29266 4.10037 3.75812 3.60651 4.35024 3.24585C4.94087 2.88519 5.59596 2.70447 6.3125 2.70447C7.02905 2.70447 7.70062 2.88519 8.292 3.24585C8.88262 3.60651 9.34958 4.10037 9.69061 4.72665C10.0316 5.35294 10.2025 6.05712 10.2025 6.83608C10.2025 7.61504 10.0316 8.31922 9.69061 8.94551L9.69136 8.94628Z" fill="#F2ECE3"/>
<path d="M77.9155 1.48672C77.9155 2.30781 77.275 2.97344 76.4849 2.97344C75.6949 2.97344 75.0544 2.30781 75.0544 1.48672C75.0544 0.665627 75.6949 0 76.4849 0C77.275 0 77.9155 0.665627 77.9155 1.48672Z" fill="#F2ECE3"/>
</svg>
